Patient4_TMGait_0pt4_01_right_04_GRF.mot
version=1
nRows=72
nColumns=19
inDegrees=no
endheader
time	F1x	F1y	F1z	M1x	M1y	M1z	F2x	F2y	F2z	M2x	M2y	M2z	EC1x	EC1y	EC1z	EC2x	EC2y	EC2z
4.74	-6.5342	728.0371	51.4984	-268.4092	-52.9157	753.8118	25.0206	5.1534	0.56209	1.0876	-3.8621	-2.4228	-0.0592	0.0182	-0.0073	-0.0462	0.0165	0.9585
4.7529	-3.1265	725.6713	52.4387	-267.0219	-52.9994	751.0692	16.6163	3.8887	0.35544	0.91877	-2.491	-1.1508	-0.0592	0.0182	-0.0073	-0.0462	0.0165	0.9585
4.7659	0.00069802	723.9209	52.6975	-265.9906	-52.3951	748.4433	9.5338	2.9112	0.16868	0.80813	-1.3328	0.047962	-0.0592	0.0182	-0.0073	-0.0462	0.0165	0.9585
4.7788	2.7176	723.5992	52.3297	-265.6258	-51.1785	746.7638	4.1403	2.2644	0.024745	0.75413	-0.45059	1.0923	-0.0592	0.0182	-0.0073	-0.0462	0.0165	0.9585
4.7917	5.0108	725.3449	51.4938	-266.1371	-49.5127	746.7374	0.42781	1.8853	-0.072563	0.73867	0.15812	1.8908	-0.0592	0.0182	-0.0073	-0.0462	0.0165	0.9585
4.8046	6.9273	729.4187	50.383	-267.5774	-47.5862	748.7155	-1.8771	1.7133	-0.12689	0.74879	0.54004	2.4549	-0.0592	0.0182	-0.0073	-0.0462	0.0165	0.9585
4.8176	8.536	735.6395	49.1668	-269.8341	-45.5596	752.609	-3.1009	1.6784	-0.15617	0.77011	0.7561	2.8112	-0.0592	0.0182	-0.0073	-0.0462	0.0165	0.9585
4.8305	9.9426	743.4574	47.9752	-272.6605	-43.5446	757.9366	-3.5781	1.6864	-0.17129	0.78162	0.86247	2.9672	-0.0592	0.0182	-0.0073	-0.0462	0.0165	0.9585
4.8434	11.2643	752.0626	46.8984	-275.7171	-41.6087	763.9308	-3.6235	1.653	-0.18674	0.76073	0.91725	2.937	-0.0592	0.0182	-0.0073	-0.0462	0.0165	0.9585
4.8564	12.6182	760.5444	46.0052	-278.6327	-39.7975	769.6931	-3.4306	1.4881	-0.20838	0.68059	0.94845	2.6793	-0.0592	0.0182	-0.0073	-0.0462	0.0165	0.9585
4.8693	14.1028	768.0758	45.3652	-281.0734	-38.1561	774.3915	-3.1841	1.1234	-0.24073	0.51618	0.9879	2.1823	-0.0592	0.0182	-0.0073	-0.0462	0.0165	0.9585
4.8822	15.7805	774.054	45.0413	-282.7976	-36.7369	777.4479	-2.9441	0.45942	-0.27901	0.23474	1.0317	1.3451	-0.0592	0.0182	-0.0073	-0.0462	0.0165	0.9585
4.8951	17.6675	778.1296	45.0817	-283.6729	-35.5927	778.5677	-2.7492	-0.53972	-0.32363	-0.18061	1.0743	0.14631	-0.0592	0.0182	-0.0073	-0.0462	0.0165	0.9585
4.9081	19.7692	780.2089	45.5088	-283.6728	-34.7612	777.7077	-2.5597	-1.908	-0.35668	-0.73945	1.0744	-1.4637	-0.0592	0.0182	-0.0073	-0.0462	0.0165	0.9585
4.921	22.044	780.399	46.3048	-282.8545	-34.2511	775.0342	-2.3209	-3.5869	-0.36286	-1.4171	0.99646	-3.4244	-0.0592	0.0182	-0.0073	-0.0462	0.0165	0.9585
4.9339	24.4204	778.926	47.4306	-281.3277	-34.0647	770.8352	-1.9232	-5.362	-0.31306	-2.1295	0.77566	-5.4911	-0.0592	0.0182	-0.0073	-0.0462	0.0165	0.9585
4.9469	26.7774	776.0845	48.8141	-279.2284	-34.1849	765.4717	-1.2297	-6.8442	-0.17844	-2.7209	0.33658	-7.2167	-0.0592	0.0182	-0.0073	-0.0462	0.0165	0.9585
4.9598	29.0153	772.1705	50.3917	-276.6903	-34.5905	759.2777	-0.13458	-7.3755	0.091696	-2.9319	-0.41089	-7.8457	-0.0592	0.0182	-0.0073	-0.0462	0.0165	0.9585
4.9727	31.0462	767.4297	52.0813	-273.8263	-35.2331	752.5324	1.4997	-5.9927	0.53659	-2.3813	-1.5498	-6.3078	-0.0592	0.0182	-0.0073	-0.0462	0.0165	0.9585
4.9856	32.8302	761.991	53.8275	-270.7028	-36.0698	745.3819	3.6963	-1.4023	1.1957	-0.55748	-3.1254	-1.1599	-0.0592	0.0182	-0.0073	-0.0462	0.0165	0.9585
4.9986	34.3607	755.7825	55.5521	-267.3083	-37.0245	737.7514	6.3836	7.922	2.0698	3.1503	-5.097	9.2731	-0.0592	0.0182	-0.0073	-0.0462	0.0165	0.9585
5.0115	35.6271	748.4366	57.1831	-263.5208	-38.0272	729.2844	9.2692	23.6236	3.1098	9.3962	-7.2848	26.8118	-0.0592	0.0182	-0.0073	-0.0462	0.0165	0.9585
5.0244	36.6249	739.2717	58.5954	-259.1097	-38.9592	719.3175	11.7639	47.055	4.1721	18.7245	-9.2905	52.9445	-0.0592	0.0182	-0.0073	-0.0462	0.0165	0.9585
5.0374	37.3084	727.335	59.6461	-253.7498	-39.6971	706.9451	12.872	78.7129	4.9969	31.3404	-10.4326	88.1919	-0.0592	0.0182	-0.0073	-0.0462	0.0165	0.9585
5.0503	37.6506	711.5409	60.1399	-247.0791	-40.0707	691.118	11.4192	117.6914	5.1643	46.8761	-9.8013	131.5344	-0.0592	0.0182	-0.0073	-0.0462	0.0165	0.9585
5.0632	37.6026	691.0044	59.9096	-238.81	-39.9427	670.9983	6.9706	161.347	4.2709	64.246	-6.7902	180.0457	-0.0592	0.0182	-0.0073	-0.0462	0.0165	0.9585
5.0761	37.1748	665.3218	58.8406	-228.8305	-39.206	646.1734	0.2452	205.1153	2.0921	81.6078	-1.5096	228.6786	-0.0592	0.0182	-0.0073	-0.0462	0.0165	0.9585
5.0891	36.4282	634.8612	56.9679	-217.3028	-37.8688	616.9493	-7.2325	243.9358	-1.1407	96.9564	5.1639	271.7313	-0.0592	0.0182	-0.0073	-0.0462	0.0165	0.9585
5.102	35.5319	600.9089	54.4291	-204.7134	-35.9955	584.4697	-14.3963	275.1149	-5.2345	109.2113	12.5603	306.2002	-0.0592	0.0182	-0.0073	-0.0462	0.0165	0.9585
5.1149	34.7118	565.318	51.4726	-191.7381	-33.73	550.4036	-20.5154	298.9681	-9.4294	118.5262	19.6045	332.3904	-0.0592	0.0182	-0.0073	-0.0462	0.0165	0.9585
5.1279	34.1347	529.7374	48.3152	-178.9707	-31.2046	516.2478	-25.2782	317.4716	-13.2859	125.7142	25.6916	352.5053	-0.0592	0.0182	-0.0073	-0.0462	0.0165	0.9585
5.1408	33.835	495.1047	45.0749	-166.7446	-28.5075	482.8596	-28.5451	333.0553	-16.2871	131.7766	30.2484	369.179	-0.0592	0.0182	-0.0073	-0.0462	0.0165	0.9585
5.1537	33.6979	461.6252	41.7324	-155.1245	-25.6528	450.4609	-30.3598	348.0261	-18.4489	137.6352	33.3027	384.9301	-0.0592	0.0182	-0.0073	-0.0462	0.0165	0.9585
5.1666	33.5273	428.9272	38.2331	-143.9623	-22.6544	418.7323	-30.8259	364.4232	-19.8134	144.0921	34.9674	401.953	-0.0592	0.0182	-0.0073	-0.0462	0.0165	0.9585
5.1796	33.0478	396.2488	34.5376	-132.9601	-19.5671	386.9984	-30.1575	383.9476	-20.7912	151.7853	35.7641	422.1081	-0.0592	0.0182	-0.0073	-0.0462	0.0165	0.9585
5.1925	31.9853	362.6394	30.6906	-121.7459	-16.5256	354.3744	-28.6346	407.7885	-21.7195	161.1439	36.1801	446.6868	-0.0592	0.0182	-0.0073	-0.0462	0.0165	0.9585
5.2054	30.0481	327.2971	26.8011	-109.9913	-13.7305	320.1034	-26.5751	436.4692	-23.1005	172.331	36.8665	476.2686	-0.0592	0.0182	-0.0073	-0.0462	0.0165	0.9585
5.2184	26.9894	289.9286	22.9948	-97.5459	-11.3856	283.8946	-24.3442	470.0172	-25.2002	185.3243	38.2492	510.8876	-0.0592	0.0182	-0.0073	-0.0462	0.0165	0.9585
5.2313	22.6796	250.9739	19.3961	-84.526	-9.6554	246.1514	-22.2571	508.0687	-28.2575	199.9588	40.6941	550.1394	-0.0592	0.0182	-0.0073	-0.0462	0.0165	0.9585
5.2442	17.2053	211.6341	16.0764	-71.3287	-8.5814	208.0155	-20.5883	549.8697	-32.2644	215.9345	44.2906	593.2066	-0.0592	0.0182	-0.0073	-0.0462	0.0165	0.9585
5.2571	10.9611	173.5258	13.102	-58.5074	-8.0894	171.021	-19.4783	594.086	-37.1287	232.745	48.9782	638.6383	-0.0592	0.0182	-0.0073	-0.0462	0.0165	0.9585
5.2701	4.5632	138.2094	10.517	-46.6033	-8.0047	136.6657	-18.9583	638.8313	-42.5166	249.6817	54.4075	684.4135	-0.0592	0.0182	-0.0073	-0.0462	0.0165	0.9585
5.283	-1.2886	106.7499	8.3418	-35.9939	-8.0981	105.9689	-18.9361	681.7531	-48.0477	265.8673	60.125	728.0217	-0.0592	0.0182	-0.0073	-0.0462	0.0165	0.9585
5.2959	-6.0198	79.6576	6.5222	-26.8615	-8.1166	79.4392	-19.2586	720.3612	-53.2502	280.3701	65.5671	766.8327	-0.0592	0.0182	-0.0073	-0.0462	0.0165	0.9585
5.3089	-9.2135	56.9818	4.9953	-19.2238	-7.856	57.1352	-19.7266	752.3478	-57.7824	292.3204	70.2898	798.4356	-0.0592	0.0182	-0.0073	-0.0462	0.0165	0.9585
5.3218	-10.6604	38.548	3.688	-13.0191	-7.1741	38.9257	-20.1575	775.9393	-61.3916	301.0463	73.9578	821.013	-0.0592	0.0182	-0.0073	-0.0462	0.0165	0.9585
5.3347	-10.3869	24.0864	2.5668	-8.153	-6.0504	24.5782	-20.4049	790.1821	-63.992	306.185	76.4314	833.6403	-0.0592	0.0182	-0.0073	-0.0462	0.0165	0.9585
5.3476	-8.7784	13.333	1.6183	-4.5352	-4.6135	13.8428	-20.3247	795.1112	-65.5409	307.7525	77.6287	836.4209	-0.0592	0.0182	-0.0073	-0.0462	0.0165	0.9585
5.3606	-6.616	6.0324	0.88184	-2.0769	-3.1712	6.5067	-19.8094	791.6959	-66.0799	306.1235	77.569	830.4254	-0.0592	0.0182	-0.0073	-0.0462	0.0165	0.9585
5.3735	-4.4368	1.6187	0.37946	-0.59118	-1.938	2.0331	-18.8007	781.6722	-65.6683	301.9727	76.3132	817.4885	-0.0592	0.0182	-0.0073	-0.0462	0.0165	0.9585
5.3864	-2.5705	-0.59849	0.067609	0.15406	-0.9909	-0.22181	-17.311	767.3722	-64.4682	296.1986	74.0442	800.0432	-0.0592	0.0182	-0.0073	-0.0462	0.0165	0.9585
5.3994	-1.1129	-1.3203	-0.090041	0.39401	-0.33578	-0.98176	-15.405	751.3815	-62.695	289.7947	71.0228	780.7553	-0.0592	0.0182	-0.0073	-0.0462	0.0165	0.9585
5.4123	-0.10124	-1.1075	-0.14978	0.3206	0.069486	-0.79527	-13.2342	736.1432	-60.6266	283.7003	67.5964	762.1325	-0.0592	0.0182	-0.0073	-0.0462	0.0165	0.9585
5.4252	0.53497	-0.41529	-0.13761	0.087044	0.27377	-0.12491	-10.9377	723.696	-58.497	278.705	64.0666	746.2272	-0.0592	0.0182	-0.0073	-0.0462	0.0165	0.9585
5.4381	0.86454	0.44068	-0.091891	-0.19995	0.33666	0.71711	-8.6198	715.5298	-56.4941	275.3885	60.6745	734.5098	-0.0592	0.0182	-0.0073	-0.0462	0.0165	0.9585
5.4511	0.9608	1.2431	-0.022482	-0.46699	0.29405	1.5118	-6.336	712.4483	-54.7129	274.0725	57.5486	727.7311	-0.0592	0.0182	-0.0073	-0.0462	0.0165	0.9585
5.464	0.90823	1.837	0.058681	-0.66197	0.1852	2.0981	-4.1051	714.5647	-53.1997	274.8053	54.7512	725.9557	-0.0592	0.0182	-0.0073	-0.0462	0.0165	0.9585
5.4769	0.74802	2.1193	0.15171	-0.74696	0.026969	2.3759	-1.8928	721.3135	-51.9509	277.367	52.2708	728.5753	-0.0592	0.0182	-0.0073	-0.0462	0.0165	0.9585
5.4899	0.54718	2.0004	0.25207	-0.69071	-0.15568	2.222	0.34403	731.5428	-50.962	281.3081	50.0798	734.4191	-0.0592	0.0182	-0.0073	-0.0462	0.0165	0.9585
5.5028	0.31407	1.4298	0.35733	-0.47193	-0.35374	1.5897	2.6692	743.7289	-50.2036	286.0252	48.1118	741.977	-0.0592	0.0182	-0.0073	-0.0462	0.0165	0.9585
5.5157	0.10597	0.34833	0.46075	-0.071701	-0.54154	0.38818	5.1595	756.1724	-49.6484	290.8397	46.2964	749.6015	-0.0592	0.0182	-0.0073	-0.0462	0.0165	0.9585
5.5286	-0.051756	-1.2291	0.55132	0.50648	-0.69452	-1.3708	7.8341	767.2036	-49.2498	295.0792	44.5656	755.7202	-0.0592	0.0182	-0.0073	-0.0462	0.0165	0.9585
5.5416	-0.078769	-3.2139	0.60254	1.2293	-0.75685	-3.6029	10.6948	775.3519	-48.9883	298.1449	42.8895	758.986	-0.0592	0.0182	-0.0073	-0.0462	0.0165	0.9585
5.5545	0.10658	-5.3784	0.57036	2.0122	-0.64795	-6.0507	13.6935	779.5344	-48.864	299.5865	41.2754	758.4823	-0.0592	0.0182	-0.0073	-0.0462	0.0165	0.9585
5.5674	0.61166	-7.2711	0.38968	2.6879	-0.25447	-8.2038	16.7616	779.1805	-48.8936	299.1633	39.7606	753.7874	-0.0592	0.0182	-0.0073	-0.0462	0.0165	0.9585
5.5804	1.5728	-8.1722	-0.011645	2.9857	0.56089	-9.2635	19.7969	774.4088	-49.0855	296.9052	38.3916	745.141	-0.0592	0.0182	-0.0073	-0.0462	0.0165	0.9585
5.5933	3.0967	-7.0073	-0.72001	2.5041	1.9408	-8.018	22.724	765.9688	-49.4715	293.0928	37.2376	733.3488	-0.0592	0.0182	-0.0073	-0.0462	0.0165	0.9585
5.6062	5.2822	-2.3295	-1.8061	0.70476	3.999	-2.8641	25.4563	755.0057	-50.0698	288.175	36.362	719.56	-0.0592	0.0182	-0.0073	-0.0462	0.0165	0.9585
5.6191	8.0927	7.6404	-3.3121	-3.0727	6.7673	8.2122	27.9111	742.7385	-50.8803	282.6481	35.8103	704.9676	-0.0592	0.0182	-0.0073	-0.0462	0.0165	0.9585
5.6321	11.3357	24.7738	-5.2033	-9.5303	10.127	27.3468	30.0449	730.0925	-51.8407	276.9128	35.5569	690.4544	-0.0592	0.0182	-0.0073	-0.0462	0.0165	0.9585
5.645	14.4989	50.718	-7.311	-19.2774	13.6935	56.4438	31.8068	717.4084	-52.8295	271.1553	35.5132	676.3456	-0.0592	0.0182	-0.0073	-0.0462	0.0165	0.9585
5.6579	16.6898	86.2418	-9.2707	-32.5846	16.7146	96.4111	33.1714	704.2806	-53.6537	265.2828	35.517	662.2394	-0.0592	0.0182	-0.0073	-0.0462	0.0165	0.9585
